<?xml version="1.0" ?><svg viewBox="0 0 64 64" xmlns="http://www.w3.org/2000/svg"><title/><g data-name="22-Cough" id="_22-Cough"><line style="fill:none;stroke:#000;stroke-linejoin:round;stroke-width:2px" x1="13" x2="4" y1="47" y2="50"/><line style="fill:none;stroke:#000;stroke-linejoin:round;stroke-width:2px" x1="13" x2="4" y1="54" y2="57"/><line style="fill:none;stroke:#000;stroke-linejoin:round;stroke-width:2px" x1="13" x2="9" y1="50.667" y2="52"/><line style="fill:none;stroke:#000;stroke-linejoin:round;stroke-width:2px" x1="18" x2="15" y1="49" y2="50"/><line style="fill:none;stroke:#000;stroke-linejoin:round;stroke-width:2px" x1="8" x2="4" y1="44.667" y2="46"/><line style="fill:none;stroke:#000;stroke-linejoin:round;stroke-width:2px" x1="13" x2="10" y1="43" y2="44"/><path d="M48,36V31s3,0,3,2S48,36,48,36Z" style="fill:none;stroke:#000;stroke-linejoin:round;stroke-width:2px"/><path d="M16,17V16h0C16,7.716,23.036,1,31.714,1h9.429C51.557,1,60,9.059,60,19v8c0,3-1.394,9.558-5,13l-1.565,1.565A8.315,8.315,0,0,0,51,47.444V48H48" style="fill:none;stroke:#000;stroke-linejoin:round;stroke-width:2px"/><polyline points="26 24 20 28 26 32" style="fill:none;stroke:#000;stroke-linejoin:round;stroke-width:2px"/><path d="M39,57l9-3h3v9H27a3,3,0,0,1,3-3h0l3-1" style="fill:none;stroke:#000;stroke-linejoin:round;stroke-width:2px"/><line style="fill:none;stroke:#000;stroke-linejoin:round;stroke-width:2px" x1="35" x2="37" y1="58.333" y2="57.667"/><path d="M48,52V40l4.1-1.957C53.62,37.063,54,35.767,54,34V31.652A3.861,3.861,0,0,0,50.2,28H40c-7.238,0-14-15-20-15a6.83,6.83,0,0,1-4,4V28c0,1.5-2.25,4.688-3.375,6.188A3.107,3.107,0,0,0,12,36.053v.034a3.1,3.1,0,0,0,1.711,2.769L16,40a19.685,19.685,0,0,0,1.663,4H23a2,2,0,0,1,2,2h0l-4.619,1.873A15.032,15.032,0,0,0,30,52.885V60" style="fill:none;stroke:#000;stroke-linejoin:round;stroke-width:2px"/></g></svg>